<svg width="32" height="16" viewBox="0 0 32 16" fill="none" xmlns="http://www.w3.org/2000/svg">
<path d="M31.6334 6.86518C31.633 6.86481 31.6327 6.86437 31.6322 6.864L25.1007 0.363996C24.6114 -0.122942 23.82 -0.121129 23.3329 0.368245C22.8459 0.857558 22.8478 1.649 23.3371 2.136L27.7224 6.49999H1.25C0.559625 6.49999 0 7.05962 0 7.74999C0 8.44037 0.559625 8.99999 1.25 8.99999H27.7223L23.3372 13.364C22.8479 13.851 22.846 14.6424 23.333 15.1317C23.8201 15.6212 24.6116 15.6229 25.1008 15.136L31.6323 8.63599C31.6327 8.63562 31.633 8.63518 31.6334 8.63481C32.123 8.14618 32.1214 7.35218 31.6334 6.86518Z" fill="white"/>
</svg>
